<svg width="23" height="23" viewBox="0 0 23 23" fill="none" xmlns="http://www.w3.org/2000/svg">
<path d="M11.5 0C5.14841 0 0 5.14841 0 11.5C0 17.8516 5.14912 23 11.5 23C17.8516 23 23 17.8516 23 11.5C23 5.14841 17.8516 0 11.5 0ZM12.9857 13.6275C13.225 13.8352 13.4112 14.5676 13.4112 14.904V17.8825H11.7113H10.0093C10.0093 17.8825 10.0143 16.8727 10.0093 16.1805C7.68056 16.6815 7.03081 14.904 7.03081 14.904C6.60531 14.053 6.17981 13.6275 6.17981 13.6275C5.32881 13.1222 6.17981 13.202 6.17981 13.202C7.03081 13.202 7.45631 14.053 7.45631 14.053C8.20309 15.3209 9.53206 15.1168 10.0093 14.904C10.0093 14.4785 10.1955 13.8352 10.4348 13.6275C8.57612 13.4183 7.02937 12.351 7.02937 10.2235C7.02937 8.096 7.45631 7.6705 7.88181 7.245C7.79556 7.03512 7.43978 6.26031 7.89475 5.1175C7.89475 5.1175 8.73066 5.1175 9.58166 6.394C10.0036 5.97209 11.2837 5.9685 11.7099 5.9685C12.1347 5.9685 13.4155 5.97209 13.8367 6.394C14.6877 5.1175 15.5257 5.1175 15.5257 5.1175C15.9807 6.26031 15.6249 7.03512 15.5387 7.245C15.9642 7.6705 16.3897 8.096 16.3897 10.2235C16.3904 12.351 14.8451 13.4183 12.9857 13.6275Z" fill="white"/>
</svg>
