<svg width="27" height="27" viewBox="0 0 27 27" fill="none" xmlns="http://www.w3.org/2000/svg">
<path d="M13.7394 14.8015L18.3741 18.0242V11.6091L16.3242 13.0211L13.7394 14.8015Z" fill="white"/>
<path d="M13.2502 1.83366C6.89343 1.83366 1.73987 6.98629 1.73987 13.3431C1.73987 19.7 6.89343 24.8535 13.2502 24.8535C19.6066 24.8535 24.7602 19.7 24.7602 13.3431C24.7602 6.98629 19.6066 1.83366 13.2502 1.83366ZM18.6569 18.5612V18.5615H7.84221H7.43537C6.80682 18.5615 6.29246 18.0472 6.29246 17.4186V9.61155C6.29246 8.98295 6.80677 8.46864 7.43537 8.46864L7.43985 8.47201L7.43537 8.46836H19.0985C19.727 8.46836 20.2414 8.98262 20.2414 9.61117V9.94244L20.2417 9.9422L20.2414 9.94253L20.2432 17.4196C20.2159 18.2507 19.8558 18.5473 18.6569 18.5612Z" fill="white"/>
<path d="M13.2478 15.0802C13.1919 15.0802 13.1361 15.0634 13.088 15.0301L13.0045 14.9719L8.24451 18.2818H18.2546L13.4932 14.9711C13.4932 14.9711 13.3033 15.0802 13.2478 15.0802Z" fill="white"/>
<path d="M19.0981 8.46863L19.0984 8.46837L19.0974 8.46912L19.0981 8.46863Z" fill="white"/>
<path d="M18.2469 8.74808H8.28235L13.2483 12.43L18.2469 8.74808Z" fill="white"/>
<path d="M12.755 14.7982L8.12481 11.6089L8.12219 18.0262L12.7596 14.8015L12.755 14.7982Z" fill="white"/>
</svg>
