<svg width="120" height="120" viewBox="0 0 120 120" fill="none" xmlns="http://www.w3.org/2000/svg">
<g clip-path="url(#clip0)">
<path d="M31.0565 31.7446C29.5278 30.4751 27.5586 29.8625 25.5795 30.0409C23.6005 30.2194 21.7726 31.1743 20.4956 32.6968L1.74675 55.1954C0.618383 56.542 0 58.2429 0 59.9998C0 61.7567 0.618383 63.4575 1.74675 64.8041L20.4956 87.3028C21.1246 88.0648 21.898 88.6951 22.7714 89.1572C23.6447 89.6194 24.6008 89.9043 25.5847 89.9957C26.5685 90.0871 27.5608 89.9832 28.5043 89.6898C29.4479 89.3965 30.3241 88.9195 31.0827 88.2863C31.8413 87.6532 32.4673 86.8764 32.9246 86.0005C33.382 85.1246 33.6617 84.1669 33.7477 83.1826C33.8337 82.1982 33.7243 81.2066 33.4257 80.2647C33.1272 79.3227 32.6454 78.4491 32.0081 77.694L17.2585 60L32.0085 42.3058C33.2823 40.7788 33.8975 38.8086 33.719 36.8281C33.5405 34.8477 32.5828 33.0192 31.0565 31.7446Z" fill="#0F4C75"/>
<path d="M68.9642 15.149C67.0161 14.7802 65.001 15.1904 63.3521 16.2915C61.7032 17.3926 60.5522 19.0967 60.1464 21.0375L45.1473 96.0328C44.9528 96.9985 44.9509 97.9932 45.1418 98.9597C45.3327 99.9262 45.7126 100.845 46.2597 101.665C46.8069 102.484 47.5104 103.187 48.33 103.734C49.1496 104.28 50.0691 104.66 51.0357 104.85C51.5224 104.95 52.0182 104.999 52.5151 104.997C54.2471 104.994 55.9248 104.391 57.2627 103.291C58.6006 102.191 59.5161 100.661 59.8534 98.9625L74.8526 23.9669C75.0472 23.0011 75.0491 22.0064 74.8582 21.0398C74.6674 20.0733 74.2875 19.1539 73.7404 18.3346C73.1932 17.5153 72.4896 16.8121 71.67 16.2654C70.8504 15.7187 69.9308 15.3393 68.9642 15.149V15.149Z" fill="#0F4C75"/>
<path d="M118.253 55.1954L99.5043 32.6967C98.8753 31.9347 98.1019 31.3045 97.2285 30.8423C96.3552 30.3801 95.3991 30.0952 94.4152 30.0038C93.4314 29.9124 92.4391 30.0163 91.4956 30.3097C90.552 30.603 89.6758 31.08 88.9172 31.7132C88.1586 32.3463 87.5326 33.1232 87.0753 33.999C86.6179 34.8749 86.3382 35.8326 86.2522 36.8169C86.1662 37.8013 86.2756 38.7929 86.5742 39.7348C86.8727 40.6768 87.3545 41.5504 87.9918 42.3055L102.741 60L87.9914 77.6942C87.3541 78.4493 86.8723 79.323 86.5738 80.2649C86.2753 81.2068 86.1658 82.1985 86.2518 83.1828C86.3378 84.1672 86.6176 85.1248 87.0749 86.0007C87.5323 86.8766 88.1582 87.6534 88.9168 88.2866C89.6754 88.9197 90.5517 89.3967 91.4952 89.69C92.4388 89.9834 93.431 90.0874 94.4149 89.996C95.3987 89.9045 96.3548 89.6196 97.2282 89.1574C98.1015 88.6953 98.8749 88.065 99.5039 87.303L118.253 64.8041C119.382 63.4575 120 61.7566 120 59.9997C120 58.2428 119.382 56.542 118.253 55.1954V55.1954Z" fill="#0F4C75"/>
</g>
<defs>
<clipPath id="clip0">
<rect width="120" height="120" fill="white"/>
</clipPath>
</defs>
</svg>
