<svg width="120" height="120" viewBox="0 0 120 120" fill="none" xmlns="http://www.w3.org/2000/svg">
<path d="M60 15C35.15 15 15 35.15 15 60C15 84.85 35.15 105 60 105C64.15 105 67.5 101.65 67.5 97.5C67.5 95.55 66.775 93.8 65.55 92.475C64.375 91.15 63.675 89.425 63.675 87.5C63.675 83.35 67.025 80 71.175 80H80C93.8 80 105 68.8 105 55C105 32.9 84.85 15 60 15ZM32.5 60C28.35 60 25 56.65 25 52.5C25 48.35 28.35 45 32.5 45C36.65 45 40 48.35 40 52.5C40 56.65 36.65 60 32.5 60ZM47.5 40C43.35 40 40 36.65 40 32.5C40 28.35 43.35 25 47.5 25C51.65 25 55 28.35 55 32.5C55 36.65 51.65 40 47.5 40ZM72.5 40C68.35 40 65 36.65 65 32.5C65 28.35 68.35 25 72.5 25C76.65 25 80 28.35 80 32.5C80 36.65 76.65 40 72.5 40ZM87.5 60C83.35 60 80 56.65 80 52.5C80 48.35 83.35 45 87.5 45C91.65 45 95 48.35 95 52.5C95 56.65 91.65 60 87.5 60Z" fill="#0F4C75"/>
</svg>
