<svg width="120" height="120" viewBox="0 0 120 120" fill="none" xmlns="http://www.w3.org/2000/svg">
<path d="M34.5333 31.3062C35.2313 28.0332 37.0045 25.1581 39.469 23.0717C42.0574 20.8744 45.4085 19.5511 49.0664 19.5511C50.4549 19.5511 51.8112 19.7466 53.0956 20.1052C54.1709 20.405 55.1946 20.8287 56.1532 21.3439C57.6593 19.1597 59.6672 17.3405 62.0013 16.0498C64.4787 14.674 67.3214 13.898 70.3402 13.898C75.0928 13.898 79.4025 15.8279 82.5258 18.9443C85.6486 22.0742 87.5787 26.3771 87.5787 31.1365C87.5787 31.5929 87.559 32.0557 87.5199 32.5186L87.5133 32.5711C88.1527 32.3689 88.8045 32.1994 89.4628 32.0689C90.5452 31.8537 91.6666 31.7429 92.801 31.7429C97.5607 31.7429 101.87 33.6725 104.986 36.7957C108.109 39.9186 110.039 44.2285 110.039 48.9814C110.039 49.5875 110.007 50.2069 109.942 50.8261C109.889 51.2958 109.824 51.7587 109.74 52.2085C110.998 53.5189 112.028 55.0575 112.745 56.7591C113.495 58.5392 113.906 60.4885 113.906 62.5229C113.906 66.6303 112.243 70.3402 109.557 73.0327C106.871 75.7189 103.154 77.3815 99.0469 77.3815H70.8488V81.2023L73.8152 84.1754C75.015 83.0279 77.4731 80.7329 77.4797 80.7265C77.8057 80.4268 78.3077 80.4525 78.6077 80.7788C78.9012 81.098 78.8815 81.6066 78.5552 81.9C78.5487 81.9132 76.0453 84.2405 74.9435 85.2968L79.8527 90.2063C79.9964 90.3495 80.0876 90.552 80.0876 90.7735V101.147C80.4656 101.27 80.805 101.485 81.0785 101.759C81.5416 102.222 81.8281 102.855 81.8281 103.559C81.8281 104.257 81.5414 104.889 81.0851 105.352C80.6159 105.815 79.9833 106.101 79.2856 106.101C78.5881 106.101 77.9489 105.814 77.4926 105.352C77.0297 104.888 76.7428 104.256 76.7428 103.559C76.7428 102.855 77.0299 102.222 77.4863 101.759L77.5514 101.707C77.812 101.459 78.1317 101.264 78.4838 101.146V91.0993L69.48 82.0955C69.3237 81.9389 69.2452 81.7367 69.2452 81.5281V77.3815H65.4509V82.5258L74.5329 91.6078C74.6763 91.7513 74.7677 91.9536 74.7677 92.175V93.6097C75.139 93.7332 75.4784 93.9483 75.7584 94.2223C76.215 94.6786 76.5024 95.3175 76.5024 96.015C76.5024 96.7191 76.2218 97.3514 75.7584 97.808C75.2958 98.2709 74.6634 98.5575 73.9659 98.5575C73.2619 98.5575 72.623 98.2707 72.1662 97.8143L72.1142 97.7555C71.6836 97.2994 71.423 96.6861 71.423 96.0148C71.423 95.3171 71.7101 94.6784 72.1662 94.2221C72.4402 93.9481 72.7856 93.7329 73.1639 93.6094V92.5076L71.7427 91.0864L68.7047 94.1309V98.6424C68.7047 99.0858 68.3461 99.4444 67.9027 99.4444C67.4592 99.4444 67.1006 99.0858 67.1006 98.6424V93.7983C67.1006 93.5571 67.2045 93.3422 67.3746 93.1983L70.6144 89.9581L64.0819 83.4251C63.9251 83.2688 63.847 83.0668 63.847 82.8579V77.3813H60.7369V100.409C61.0889 100.527 61.4084 100.716 61.6758 100.964L61.7346 101.022C62.1907 101.478 62.4778 102.118 62.4778 102.815C62.4778 103.519 62.1907 104.152 61.7346 104.614C61.2715 105.078 60.6389 105.358 59.9351 105.358C59.2376 105.358 58.605 105.078 58.1424 104.614C57.6792 104.152 57.3992 103.519 57.3992 102.815C57.3992 102.117 57.6792 101.478 58.1424 101.022C58.4161 100.748 58.7618 100.533 59.1331 100.409V86.9789L56.8969 90.1346V97.6456C56.8969 98.089 56.5383 98.4476 56.0949 98.4476C55.6514 98.4476 55.2928 98.089 55.2928 97.6456V89.8805C55.2928 89.6911 55.3582 89.5151 55.4754 89.3782L59.1328 84.2211V77.3815H56.1537V82.8582C56.1537 83.067 56.0752 83.269 55.9188 83.4254L49.3924 89.9583L52.6261 93.1986C52.7956 93.3422 52.9067 93.5572 52.9067 93.7986V98.6426C52.9067 99.0861 52.5415 99.4446 52.1049 99.4446C51.6614 99.4446 51.3028 99.0861 51.3028 98.6426V94.1311L48.2583 91.0866L46.8434 92.5079V93.6097C47.2214 93.7332 47.5603 93.9483 47.8341 94.2223C48.2972 94.6852 48.5777 95.3175 48.5777 96.015C48.5777 96.6863 48.3167 97.2994 47.8929 97.7557L47.8341 97.8146C47.378 98.2709 46.7388 98.5578 46.0413 98.5578C45.3434 98.5578 44.7047 98.2709 44.2484 97.8146C43.7857 97.3514 43.4986 96.7191 43.4986 96.015C43.4986 95.3173 43.7857 94.6786 44.2418 94.2223C44.5224 93.9483 44.8613 93.7332 45.2395 93.6097V92.175C45.2395 91.9536 45.3307 91.7513 45.4744 91.6078L54.5564 82.5258V77.3815H50.7617V81.5281C50.7551 81.7367 50.677 81.9389 50.5273 82.0955L41.5167 91.0993V101.146C41.8688 101.264 42.1884 101.459 42.4556 101.707L42.514 101.759C42.9706 102.222 43.2574 102.855 43.2574 103.559C43.2574 104.257 42.9769 104.889 42.514 105.352C42.0513 105.815 41.4188 106.101 40.7213 106.101C40.0238 106.101 39.3846 105.814 38.9281 105.352C38.4654 104.888 38.1783 104.256 38.1783 103.559C38.1783 102.855 38.4654 102.222 38.9215 101.759C39.202 101.485 39.541 101.277 39.9192 101.147V90.7735C39.9192 90.552 40.0038 90.3495 40.1541 90.2063L45.0567 85.3032C43.9352 84.2731 41.3988 82.0107 41.3927 82.0041C41.0536 81.7172 41.0145 81.2154 41.3016 80.8761C41.5816 80.5374 42.0902 80.498 42.4226 80.7786C42.4357 80.7914 44.9522 83.0604 46.1782 84.1819L49.1574 81.2023V77.3815H20.9529C16.8516 77.3815 13.1356 75.7189 10.4494 73.0327C7.75642 70.3402 6.09399 66.6305 6.09399 62.5229C6.09399 58.4218 7.75642 54.7121 10.4494 52.0196C12.9593 49.5029 16.3692 47.8859 20.1574 47.6836L20.1246 47.3644C20.0986 46.9599 20.0789 46.5558 20.0789 46.1583C20.0789 42.0575 21.7416 38.3475 24.4277 35.6548C27.0356 33.0535 30.5956 31.4105 34.5333 31.3062Z" fill="#0F4C75"/>
</svg>
