<svg width="25" height="23" viewBox="0 0 25 23" fill="none" xmlns="http://www.w3.org/2000/svg">
<g clip-path="url(#clip0)">
<path d="M9.87654 11.9049C9.4009 12.4288 9.28425 12.8047 8.6615 13.7891C9.0637 14.0699 9.83845 14.7195 10.3751 15.8379C11.447 15.223 11.9468 15.1292 12.5148 14.6509C16.2227 11.5279 25.3049 0.333801 24.9922 0.00997311C24.6618 -0.334265 13.1414 8.32384 9.87654 11.9049Z" fill="white"/>
<path d="M7.59001 14.6587C5.97878 14.3739 4.38948 15.3925 3.32791 17.9373C2.26482 20.482 0.367847 21.5009 0.00012207 21.4386C1.98025 22.1549 8.0178 23.9871 9.51863 17.0121C8.88206 15.3392 7.59001 14.6587 7.59001 14.6587Z" fill="white"/>
</g>
<defs>
<clipPath id="clip0">
<rect width="25" height="22.1989" fill="white"/>
</clipPath>
</defs>
</svg>
