<svg width="150" height="50" viewBox="0 0 150 50" fill="none" xmlns="http://www.w3.org/2000/svg">
<path d="M52.69 20.12C52.69 21.82 52.25 23.38 51.37 24.8C50.49 26.22 49.21 27.38 47.53 28.28C45.85 29.18 43.85 29.71 41.53 29.87L40.24 37.1C39.74 39.88 38.38 41.27 36.16 41.27C34.94 41.27 33.81 40.91 32.77 40.19C31.75 39.47 30.93 38.37 30.31 36.89C29.69 35.41 29.38 33.59 29.38 31.43C29.38 27.37 30.03 23.93 31.33 21.11C32.65 18.27 34.41 16.15 36.61 14.75C38.83 13.33 41.27 12.62 43.93 12.62C45.81 12.62 47.4 12.95 48.7 13.61C50.02 14.27 51.01 15.17 51.67 16.31C52.35 17.43 52.69 18.7 52.69 20.12ZM42.07 26.78C46.17 26.26 48.22 24.13 48.22 20.39C48.22 19.07 47.78 18 46.9 17.18C46.04 16.34 44.7 15.92 42.88 15.92C40.82 15.92 39.02 16.57 37.48 17.87C35.96 19.17 34.78 20.98 33.94 23.3C33.12 25.6 32.71 28.23 32.71 31.19C32.71 32.43 32.83 33.53 33.07 34.49C33.33 35.45 33.65 36.2 34.03 36.74C34.43 37.26 34.81 37.52 35.17 37.52C35.67 37.52 36.05 36.83 36.31 35.45L37.3 29.78C36.52 29.66 36.18 29.61 36.28 29.63C35.68 29.53 35.29 29.35 35.11 29.09C34.93 28.81 34.84 28.46 34.84 28.04C34.84 27.6 34.96 27.25 35.2 26.99C35.46 26.73 35.81 26.6 36.25 26.6C36.45 26.6 36.6 26.61 36.7 26.63C37.18 26.71 37.55 26.76 37.81 26.78C38.07 25.22 38.44 23.13 38.92 20.51C39.04 19.83 39.31 19.35 39.73 19.07C40.17 18.77 40.68 18.62 41.26 18.62C41.92 18.62 42.39 18.75 42.67 19.01C42.97 19.25 43.12 19.64 43.12 20.18C43.12 20.5 43.1 20.76 43.06 20.96L42.07 26.78ZM54.7218 38.15C53.4818 38.15 52.4918 37.7 51.7518 36.8C51.0118 35.9 50.6418 34.72 50.6418 33.26C50.6418 31.66 51.0118 30.15 51.7518 28.73C52.4918 27.29 53.4718 26.14 54.6918 25.28C55.9318 24.4 57.2418 23.96 58.6218 23.96C59.0618 23.96 59.3518 24.05 59.4918 24.23C59.6518 24.39 59.7818 24.69 59.8818 25.13C60.3018 25.05 60.7418 25.01 61.2018 25.01C62.1818 25.01 62.6718 25.36 62.6718 26.06C62.6718 26.48 62.5218 27.48 62.2218 29.06C61.7618 31.36 61.5318 32.96 61.5318 33.86C61.5318 34.16 61.6018 34.4 61.7418 34.58C61.9018 34.76 62.1018 34.85 62.3418 34.85C62.7218 34.85 63.1818 34.61 63.7218 34.13C64.2618 33.63 64.9918 32.83 65.9118 31.73C66.1518 31.45 66.4218 31.31 66.7218 31.31C66.9818 31.31 67.1818 31.43 67.3218 31.67C67.4818 31.91 67.5618 32.24 67.5618 32.66C67.5618 33.46 67.3718 34.08 66.9918 34.52C66.1718 35.54 65.3018 36.4 64.3818 37.1C63.4618 37.8 62.5718 38.15 61.7118 38.15C61.0518 38.15 60.4418 37.93 59.8818 37.49C59.3418 37.03 58.9318 36.41 58.6518 35.63C57.6118 37.31 56.3018 38.15 54.7218 38.15ZM55.8018 35.12C56.2418 35.12 56.6618 34.86 57.0618 34.34C57.4618 33.82 57.7518 33.13 57.9318 32.27L59.0418 26.75C58.2018 26.77 57.4218 27.09 56.7018 27.71C56.0018 28.31 55.4418 29.11 55.0218 30.11C54.6018 31.11 54.3918 32.17 54.3918 33.29C54.3918 33.91 54.5118 34.37 54.7518 34.67C55.0118 34.97 55.3618 35.12 55.8018 35.12ZM67.2536 38.15C66.4936 38.15 65.9536 37.75 65.6336 36.95C65.3336 36.15 65.1836 34.87 65.1836 33.11C65.1836 30.51 65.5536 28.04 66.2936 25.7C66.4736 25.12 66.7636 24.7 67.1636 24.44C67.5836 24.16 68.1636 24.02 68.9036 24.02C69.3036 24.02 69.5836 24.07 69.7436 24.17C69.9036 24.27 69.9836 24.46 69.9836 24.74C69.9836 25.06 69.8336 25.78 69.5336 26.9C69.3336 27.7 69.1736 28.4 69.0536 29C68.9336 29.6 68.8336 30.34 68.7536 31.22C69.4136 29.5 70.1536 28.1 70.9736 27.02C71.7936 25.94 72.5936 25.17 73.3736 24.71C74.1736 24.25 74.9036 24.02 75.5636 24.02C76.8636 24.02 77.5136 24.67 77.5136 25.97C77.5136 26.75 77.2936 28.16 76.8536 30.2C76.4736 31.94 76.2836 33.09 76.2836 33.65C76.2836 34.45 76.5736 34.85 77.1536 34.85C77.5536 34.85 78.0236 34.61 78.5636 34.13C79.1236 33.63 79.8636 32.83 80.7836 31.73C81.0236 31.45 81.2936 31.31 81.5936 31.31C81.8536 31.31 82.0536 31.43 82.1936 31.67C82.3536 31.91 82.4336 32.24 82.4336 32.66C82.4336 33.46 82.2436 34.08 81.8636 34.52C81.0036 35.58 80.0736 36.45 79.0736 37.13C78.0936 37.81 76.9736 38.15 75.7136 38.15C74.6936 38.15 73.9236 37.86 73.4036 37.28C72.8836 36.68 72.6236 35.82 72.6236 34.7C72.6236 34.14 72.7636 33.14 73.0436 31.7C73.3036 30.44 73.4336 29.57 73.4336 29.09C73.4336 28.77 73.3236 28.61 73.1036 28.61C72.8436 28.61 72.4736 28.95 71.9936 29.63C71.5336 30.29 71.0536 31.17 70.5536 32.27C70.0736 33.37 69.6836 34.53 69.3836 35.75C69.1636 36.69 68.9036 37.33 68.6036 37.67C68.3236 37.99 67.8736 38.15 67.2536 38.15ZM97.3464 31.31C97.6064 31.31 97.8064 31.43 97.9464 31.67C98.1064 31.91 98.1864 32.24 98.1864 32.66C98.1864 33.46 97.9964 34.08 97.6164 34.52C96.7164 35.62 95.8064 36.5 94.8864 37.16C93.9664 37.82 92.8764 38.15 91.6164 38.15C90.0764 38.15 88.8364 37.71 87.8964 36.83C86.9564 35.95 86.4864 34.78 86.4864 33.32C86.4864 32.54 86.8864 31.98 87.6864 31.64C88.5664 31.26 89.1964 30.86 89.5764 30.44C89.9564 30 90.1464 29.47 90.1464 28.85C90.1464 28.49 90.0664 28.22 89.9064 28.04C89.7664 27.86 89.5864 27.77 89.3664 27.77C88.8264 27.77 88.2264 28.16 87.5664 28.94C86.9264 29.72 86.3264 30.73 85.7664 31.97C85.2064 33.19 84.7664 34.45 84.4464 35.75C84.2264 36.69 83.9664 37.33 83.6664 37.67C83.3864 37.99 82.9364 38.15 82.3164 38.15C81.6964 38.15 81.2364 37.93 80.9364 37.49C80.6564 37.03 80.4664 36.33 80.3664 35.39C80.2664 34.45 80.2164 33.07 80.2164 31.25C80.2164 28.17 80.5264 24.96 81.1464 21.62C81.7864 18.28 82.7164 15.48 83.9364 13.22C85.1764 10.94 86.6564 9.8 88.3764 9.8C89.2964 9.8 90.0364 10.2 90.5964 11C91.1764 11.78 91.4664 12.8 91.4664 14.06C91.4664 16.08 90.8764 18.18 89.6964 20.36C88.5164 22.52 86.5964 25.05 83.9364 27.95C83.8764 28.99 83.8464 30.06 83.8464 31.16C84.8064 28.66 85.9064 26.85 87.1464 25.73C88.3864 24.59 89.5464 24.02 90.6264 24.02C91.6264 24.02 92.4264 24.36 93.0264 25.04C93.6464 25.72 93.9564 26.56 93.9564 27.56C93.9564 28.66 93.6764 29.67 93.1164 30.59C92.5564 31.51 91.5964 32.33 90.2364 33.05C90.3164 33.59 90.5564 34.03 90.9564 34.37C91.3764 34.69 91.8764 34.85 92.4564 34.85C93.0764 34.85 93.6764 34.61 94.2564 34.13C94.8364 33.65 95.5964 32.85 96.5364 31.73C96.7764 31.45 97.0464 31.31 97.3464 31.31ZM87.7464 12.77C87.3864 12.77 86.9864 13.29 86.5464 14.33C86.1064 15.35 85.6764 16.74 85.2564 18.5C84.8564 20.24 84.5264 22.14 84.2664 24.2C85.5064 22.74 86.5264 21.15 87.3264 19.43C88.1464 17.71 88.5564 16.15 88.5564 14.75C88.5564 14.11 88.4864 13.62 88.3464 13.28C88.2064 12.94 88.0064 12.77 87.7464 12.77ZM109.148 31.31C109.408 31.31 109.608 31.43 109.748 31.67C109.908 31.91 109.988 32.24 109.988 32.66C109.988 33.46 109.798 34.08 109.418 34.52C108.678 35.42 107.628 36.25 106.268 37.01C104.928 37.77 103.488 38.15 101.948 38.15C99.8481 38.15 98.2181 37.58 97.0581 36.44C95.8981 35.3 95.3181 33.74 95.3181 31.76C95.3181 30.38 95.6081 29.1 96.1881 27.92C96.7681 26.72 97.5681 25.77 98.5881 25.07C99.6281 24.37 100.798 24.02 102.098 24.02C103.258 24.02 104.188 24.37 104.888 25.07C105.588 25.75 105.938 26.68 105.938 27.86C105.938 29.24 105.438 30.43 104.438 31.43C103.458 32.41 101.788 33.19 99.4281 33.77C99.9281 34.69 100.878 35.15 102.278 35.15C103.178 35.15 104.198 34.84 105.338 34.22C106.498 33.58 107.498 32.75 108.338 31.73C108.578 31.45 108.848 31.31 109.148 31.31ZM101.588 26.96C100.848 26.96 100.218 27.39 99.6981 28.25C99.1981 29.11 98.9481 30.15 98.9481 31.37V31.43C100.128 31.15 101.058 30.73 101.738 30.17C102.418 29.61 102.758 28.96 102.758 28.22C102.758 27.84 102.648 27.54 102.428 27.32C102.228 27.08 101.948 26.96 101.588 26.96ZM119.665 28.13C120.105 28.13 120.475 28.29 120.775 28.61C121.095 28.91 121.255 29.29 121.255 29.75C121.255 30.01 121.195 30.29 121.075 30.59C120.755 31.33 120.305 31.95 119.725 32.45C119.145 32.95 118.505 33.2 117.805 33.2C117.245 33.2 116.765 33 116.365 32.6C115.985 32.2 115.795 31.66 115.795 30.98C115.795 30.6 115.815 30.19 115.855 29.75C115.895 29.43 115.915 29.21 115.915 29.09C115.915 28.93 115.875 28.81 115.795 28.73C115.735 28.65 115.655 28.61 115.555 28.61C115.275 28.61 114.895 28.95 114.415 29.63C113.935 30.29 113.455 31.17 112.975 32.27C112.495 33.37 112.105 34.53 111.805 35.75C111.585 36.71 111.335 37.35 111.055 37.67C110.775 37.99 110.315 38.15 109.675 38.15C108.915 38.15 108.375 37.75 108.055 36.95C107.755 36.15 107.605 34.87 107.605 33.11C107.605 30.51 107.975 28.04 108.715 25.7C108.895 25.12 109.185 24.7 109.585 24.44C110.005 24.16 110.585 24.02 111.325 24.02C111.725 24.02 112.005 24.07 112.165 24.17C112.325 24.27 112.405 24.46 112.405 24.74C112.405 25.06 112.255 25.78 111.955 26.9C111.755 27.7 111.595 28.4 111.475 29C111.355 29.6 111.255 30.34 111.175 31.22C111.835 29.5 112.575 28.1 113.395 27.02C114.215 25.94 115.015 25.17 115.795 24.71C116.575 24.25 117.285 24.02 117.925 24.02C118.505 24.02 118.945 24.19 119.245 24.53C119.565 24.85 119.725 25.33 119.725 25.97C119.725 26.35 119.615 27.07 119.395 28.13H119.665Z" fill="white"/>
</svg>
