<svg width="50" height="50" viewBox="0 0 50 50" fill="none" xmlns="http://www.w3.org/2000/svg">
<circle cx="25" cy="25" r="25" fill="url(#paint0_linear)"/>
<path d="M19.418 35.4912C18.5026 36.8643 17.5996 37.9837 16.709 38.8496C15.8307 39.7031 14.9772 40.1299 14.1484 40.1299C13.7279 40.1299 13.4124 40.0309 13.2021 39.833C12.8434 39.5114 12.6641 39.2083 12.6641 38.9238C12.6641 38.6393 12.7568 38.429 12.9424 38.293C14.8102 36.9447 16.8822 32.9863 19.1582 26.418L20.2529 23.3008C21.5146 19.7383 22.5846 17.5303 23.4629 16.6768C23.7721 16.4417 24.0938 16.3242 24.4277 16.3242C24.7617 16.3242 25.0524 16.3799 25.2998 16.4912C25.5472 16.5902 25.7637 16.7201 25.9492 16.8809C26.3698 17.252 26.5801 17.6849 26.5801 18.1797C26.5801 18.3652 26.4935 18.6312 26.3203 18.9775C26.1471 19.3239 25.9492 19.7754 25.7266 20.332L23.3701 26.8818C26.376 26.3376 28.8561 25.0944 30.8105 23.1523C32.6413 21.334 33.5566 19.4661 33.5566 17.5488C33.5566 15.7305 32.7402 14.5368 31.1074 13.9678C30.5508 13.7699 29.9014 13.6709 29.1592 13.6709C28.4294 13.6709 27.681 13.7637 26.9141 13.9492C26.1471 14.1348 25.3926 14.376 24.6504 14.6729C23.1536 15.279 21.929 15.9902 20.9766 16.8066C20.7292 17.0417 20.457 17.1592 20.1602 17.1592C19.8633 17.1592 19.585 17.0973 19.3252 16.9736C19.0654 16.8499 18.8366 16.6891 18.6387 16.4912C18.181 16.0583 17.9521 15.6191 17.9521 15.1738C17.9521 14.7161 18.113 14.3079 18.4346 13.9492C18.7562 13.5905 19.1829 13.2689 19.7148 12.9844C20.2467 12.6875 20.859 12.4277 21.5518 12.2051C22.2445 11.9701 22.9557 11.7721 23.6855 11.6113C25.1699 11.3021 26.6419 11.1475 28.1016 11.1475C29.5736 11.1475 30.9157 11.333 32.1279 11.7041C33.3525 12.0628 34.3607 12.5514 35.1523 13.1699C36.748 14.4069 37.5459 15.9779 37.5459 17.8828V18.1797C37.4346 20.5176 36.5501 22.5771 34.8926 24.3584C33.4453 25.9046 31.5775 27.123 29.2891 28.0137C27.2233 28.8301 25.2689 29.2383 23.4258 29.2383H22.9434C22.7826 29.2383 22.6279 29.2259 22.4795 29.2012C21.3662 32.0091 20.3457 34.1058 19.418 35.4912Z" fill="white"/>
<defs>
<linearGradient id="paint0_linear" x1="50" y1="0" x2="0" y2="50" gradientUnits="userSpaceOnUse">
<stop stop-color="#0575E6"/>
<stop offset="1" stop-color="#021B79"/>
</linearGradient>
</defs>
</svg>
