<svg width="25" height="25" viewBox="0 0 25 25" fill="none" xmlns="http://www.w3.org/2000/svg">
<path d="M19.9001 13.3056C19.9001 14.6863 18.7767 15.8097 17.396 15.8097C16.018 15.8097 14.8971 14.6863 14.8971 13.3056C14.8971 13.1106 14.9195 12.9176 14.964 12.7288H12.7288V15.2723C12.7288 15.3474 12.692 15.4177 12.6303 15.4604C12.5686 15.5031 12.4899 15.513 12.4197 15.4866C12.1862 15.399 11.9422 15.3547 11.6944 15.3547C10.5659 15.3547 9.64783 16.2704 9.64783 17.3961C9.64783 18.5245 10.5659 19.4426 11.6944 19.4426C11.9457 19.4426 12.1884 19.397 12.4158 19.307C12.4245 19.3035 12.4335 19.3006 12.4426 19.2983C12.4878 19.2866 12.5353 19.289 12.5788 19.3049C12.5961 19.3113 12.6129 19.3199 12.6285 19.3305C12.6912 19.3731 12.7287 19.4439 12.7287 19.5197V22.0632H18.9599C20.671 22.0632 22.0632 20.6711 22.0632 18.96V12.7289H19.8318C19.8772 12.9157 19.9001 13.1087 19.9001 13.3056Z" fill="white"/>
<path d="M9.19036 17.396C9.19036 16.018 10.3137 14.8971 11.6945 14.8971C11.8895 14.8971 12.0824 14.9195 12.2713 14.964V12.7288H9.72781C9.66213 12.7288 9.60017 12.7007 9.55701 12.6523C9.55086 12.6454 9.54509 12.6381 9.53977 12.6304C9.497 12.5687 9.48718 12.49 9.51355 12.4198C9.60105 12.1864 9.64543 11.9424 9.64543 11.6945C9.64543 10.566 8.72971 9.64795 7.60408 9.64795C6.47561 9.64795 5.5575 10.566 5.5575 11.6945C5.5575 11.9458 5.6031 12.1885 5.69309 12.4159C5.72097 12.4863 5.71218 12.566 5.6696 12.6287C5.63235 12.6835 5.57346 12.7191 5.50852 12.7271C5.49929 12.7283 5.48992 12.7289 5.48044 12.7289H2.93689V18.96C2.93689 20.671 4.32898 22.0632 6.04006 22.0632H12.2712V19.8318C12.0844 19.8772 11.8914 19.9001 11.6945 19.9001C10.3137 19.9001 9.19036 18.7768 9.19036 17.396Z" fill="white"/>
<path d="M5.09993 11.6945C5.09993 10.3137 6.22327 9.19036 7.60408 9.19036C8.98201 9.19036 10.103 10.3137 10.103 11.6945C10.103 11.8895 10.0806 12.0825 10.0361 12.2713H12.2713V9.65457C12.2713 9.57341 12.3142 9.49841 12.3842 9.4573C12.4542 9.41619 12.5406 9.41526 12.6115 9.45471C12.909 9.62058 13.2449 9.70823 13.5828 9.70823C14.7084 9.70823 15.6242 8.76433 15.6242 7.60413C15.6242 6.44392 14.7084 5.50002 13.5828 5.50002C13.2364 5.50002 12.9014 5.58718 12.6139 5.75212C12.5432 5.79275 12.4561 5.79255 12.3854 5.75164C12.3148 5.71077 12.2713 5.63528 12.2713 5.55369V2.93689H6.04006C4.32898 2.93689 2.93689 4.32898 2.93689 6.04006V12.2712H5.16824C5.12283 12.0844 5.09993 11.8915 5.09993 11.6945Z" fill="white"/>
<path d="M18.9599 2.93689H12.7288V5.1946C12.9975 5.09441 13.2872 5.04241 13.5827 5.04241C14.9606 5.04241 16.0816 6.19153 16.0816 7.60408C16.0816 9.01658 14.9606 10.1657 13.5827 10.1657C13.2916 10.1657 13.0018 10.1129 12.7288 10.0113V12.2712H15.2723C15.3473 12.2712 15.4176 12.308 15.4603 12.3697C15.5031 12.4314 15.5128 12.5101 15.4865 12.5803C15.399 12.8137 15.3546 13.0577 15.3546 13.3055C15.3546 14.434 16.2704 15.3521 17.396 15.3521C18.5245 15.3521 19.4426 14.434 19.4426 13.3055C19.4426 13.0543 19.3969 12.8116 19.3069 12.5843C19.2999 12.5666 19.2953 12.5485 19.2929 12.5301C19.2855 12.475 19.2985 12.4185 19.3305 12.3715C19.3625 12.3244 19.4103 12.2916 19.4642 12.2781C19.4821 12.2736 19.5007 12.2713 19.5197 12.2713H22.0632V6.04006C22.0631 4.32898 20.671 2.93689 18.9599 2.93689Z" fill="white"/>
</svg>
