<svg width="25" height="25" viewBox="0 0 25 25" fill="none" xmlns="http://www.w3.org/2000/svg">
<path fill-rule="evenodd" clip-rule="evenodd" d="M7.70661 6.23615C8.10985 6.63938 8.10985 7.29316 7.70661 7.69639C7.30338 8.09963 6.6496 8.09963 6.24637 7.69639C5.84313 7.29316 5.84313 6.63938 6.24637 6.23615C6.6496 5.83291 7.30338 5.83291 7.70661 6.23615ZM3.13252 3.44599L3.82192 10.6009C3.82302 10.6744 3.85158 10.7476 3.90768 10.8037L14.8922 21.7881L14.8932 21.7892C15.0076 21.9036 15.1931 21.9036 15.3075 21.7892L21.783 15.3137L21.7841 15.3127C21.8985 15.1983 21.8985 15.0128 21.7841 14.8984L10.8003 3.91463C10.7538 3.86727 10.6911 3.83535 10.6199 3.82838L10.6188 3.82928L3.47636 3.12983C3.45016 3.125 3.42285 3.12369 3.39501 3.12637C3.23396 3.14188 3.11598 3.28504 3.1315 3.44608L3.13249 3.44598L3.13252 3.44599Z" fill="white"/>
</svg>
