<svg width="25" height="25" viewBox="0 0 25 25" fill="none" xmlns="http://www.w3.org/2000/svg">
<path fill-rule="evenodd" clip-rule="evenodd" d="M19.4111 6.42217L16.031 3.04209V6.42217H19.4111ZM7.24016 19.959H18.7628H19.6522V18.3217L19.5746 18.2925H17.5618C17.4676 18.2925 17.3914 18.2164 17.3914 18.1222V14.9707C17.3914 14.8765 17.4676 14.8003 17.5618 14.8003H19.6522V6.76294H15.8606C15.7665 6.76294 15.6903 6.6854 15.6903 6.59263V2.79966H7.24016V3.79565V19.959ZM18.5883 20.2999H7.06975C6.97698 20.2999 6.89934 20.2236 6.89934 20.1294V3.97026H6.17625V21.1296H18.5883V20.2999ZM17.7322 15.1411V17.9518H19.605H19.6064H19.6106H19.6119C19.6369 17.9531 19.659 17.9587 19.6798 17.9684C20.2145 18.1762 20.7493 18.3826 21.284 18.589L21.1053 18.2081C21.09 18.1831 21.0818 18.1541 21.0818 18.1222C21.0818 18.0279 21.158 17.9518 21.2521 17.9518H21.8991V15.1411C20.5096 15.1411 19.1202 15.1411 17.7322 15.1411ZM14.2441 11.5726C14.0404 11.369 13.7578 11.2429 13.4461 11.2429C13.1344 11.2429 12.8518 11.369 12.6482 11.5726C12.4446 11.7776 12.3185 12.0589 12.3185 12.3705C12.3185 12.6836 12.4446 12.9648 12.6482 13.1685C12.8518 13.3735 13.1344 13.4982 13.4461 13.4982C13.7536 13.4982 14.0334 13.3762 14.2358 13.1768L14.2441 13.1685C14.4476 12.9648 14.5738 12.6822 14.5738 12.3705C14.5738 12.0589 14.4476 11.7776 14.2441 11.5726ZM13.4461 10.902C13.8506 10.902 14.2178 11.0669 14.4837 11.333C14.7496 11.5989 14.9145 11.966 14.9145 12.3705C14.9145 12.7764 14.7496 13.1435 14.4851 13.4094L14.4754 13.4177C14.2095 13.6782 13.8465 13.8389 13.4461 13.8389C13.0416 13.8389 12.6745 13.6754 12.4085 13.4094C12.1426 13.1421 11.9777 12.7749 11.9777 12.3705C11.9777 11.966 12.1426 11.5989 12.4071 11.333C12.6731 11.0669 13.0402 10.902 13.4461 10.902ZM9.73914 12.6254V11.9702L10.7422 11.8206L10.7795 11.6571L10.8294 11.495L10.037 10.8647L10.4374 10.1707L11.3794 10.542L11.4957 10.4187L11.6177 10.3051L11.2478 9.36177L11.9405 8.96143L12.5707 9.75381L12.7328 9.70542L12.8948 9.6666L13.0459 8.66504H13.8466L13.9975 9.6666L14.1595 9.70542L14.3216 9.75381L14.9534 8.96143L15.646 9.36177L15.2748 10.3038L15.398 10.4202L15.5129 10.542L16.4549 10.1722L16.8553 10.8648L16.0629 11.4951L16.1114 11.6572L16.1502 11.8207L17.1517 11.9703V12.7709L16.1502 12.9219L16.1127 13.084L16.0629 13.246L16.8553 13.8778L16.4549 14.5705L15.5129 14.1992L15.398 14.3225L15.2748 14.4374L15.646 15.3807L14.9534 15.7796L14.3216 14.9873L14.1595 15.0371L13.9975 15.0759L13.8466 16.0774H13.0459L12.8948 15.0759L12.7328 15.0371L12.5707 14.9886L11.9405 15.7796L11.2478 15.3807L11.6177 14.4374L11.4957 14.3224L11.3794 14.1991L10.4374 14.5704L10.037 13.8777L10.8294 13.246L10.7795 13.0853L10.7422 12.9218L9.73914 12.7708V12.6254V12.6254ZM10.0799 12.3705V12.4786L11.0371 12.6213L11.0566 12.746C11.069 12.8319 11.087 12.9163 11.1092 12.9967C11.1314 13.0827 11.1577 13.1658 11.1882 13.2433L11.2325 13.3597L10.4776 13.9609L10.5843 14.1465L11.4847 13.7933L11.5636 13.8902C11.6162 13.9553 11.6745 14.0205 11.7354 14.0813C11.7992 14.1451 11.8628 14.2033 11.9265 14.2545L12.0235 14.3321L11.6702 15.2326L11.8559 15.3406L12.4584 14.5842L12.5748 14.6286C12.6524 14.659 12.7341 14.6854 12.82 14.7089C12.9003 14.7297 12.9848 14.7478 13.0708 14.7616L13.1954 14.7809L13.3395 15.7368H13.5528L13.6968 14.7809L13.8216 14.7616C13.9075 14.7478 13.9906 14.7297 14.0723 14.7089C14.1582 14.6854 14.2413 14.6591 14.3189 14.6286L14.4353 14.5842L15.0365 15.3406L15.2221 15.2326L14.8689 14.3321L14.9645 14.2545C15.031 14.2005 15.0961 14.1423 15.157 14.0813C15.2194 14.0177 15.2776 13.954 15.3288 13.8902L15.4078 13.7933L16.3082 14.1465L16.4149 13.9609L15.6599 13.3597L15.7043 13.2433C15.7333 13.1658 15.761 13.084 15.7831 12.9967C15.8054 12.9163 15.8233 12.8319 15.8372 12.746L15.8552 12.6213L16.8124 12.4786V12.2639L15.8552 12.1199L15.8372 11.9966C15.8233 11.9093 15.8054 11.8248 15.7831 11.7444C15.761 11.6585 15.7333 11.5768 15.7043 11.4993L15.6599 11.3829L16.4149 10.7803L16.3082 10.5946L15.4078 10.9479L15.3288 10.8509C15.2776 10.7872 15.2194 10.7235 15.157 10.6611C15.0961 10.5988 15.031 10.5406 14.9645 10.4879L14.8689 10.409L15.2221 9.50859L15.0365 9.4019L14.4353 10.1569L14.3189 10.1125C14.2413 10.0834 14.1582 10.0558 14.0723 10.0336C13.9906 10.0115 13.9075 9.99341 13.8216 9.98096L13.6968 9.96162L13.5528 9.00576H13.3395L13.1954 9.96162L13.0708 9.98096C12.9848 9.99341 12.9004 10.0115 12.82 10.0336C12.7341 10.0558 12.6524 10.0834 12.5748 10.1125L12.4584 10.1569L11.8559 9.4019L11.6702 9.50859L12.0235 10.409L11.9265 10.4879C11.8628 10.5393 11.7992 10.5974 11.7354 10.6597C11.6744 10.7221 11.6162 10.7857 11.5636 10.8522L11.4847 10.9492L10.5843 10.5946L10.4776 10.7803L11.2325 11.3828L11.1882 11.4992C11.1577 11.5768 11.1314 11.6585 11.1092 11.7444C11.087 11.8261 11.069 11.9092 11.0566 11.9952L11.0371 12.1199L10.0799 12.2639V12.3705V12.3705ZM21.9392 11.6211V4.06587H20.7133V11.6211H21.1552V4.7543C21.1552 4.66011 21.2328 4.58389 21.3255 4.58389C21.4198 4.58389 21.4959 4.66016 21.4959 4.7543V11.6211H21.9392ZM21.9392 12.6532V11.9619H20.7133V12.6532L21.3255 13.9442L21.9392 12.6532ZM21.9392 3.07676V1.94365C21.9392 1.91313 21.9254 1.88398 21.906 1.86328L21.899 1.85776C21.8796 1.84106 21.8547 1.83008 21.8256 1.83008H20.7271L20.7159 1.83418L20.7132 1.84395V3.07681H21.9392V3.07676ZM8.0824 4.11851C7.98816 4.11851 7.91199 4.04092 7.91199 3.9481C7.91199 3.85386 7.98816 3.77773 8.0824 3.77773H11.7519C11.8461 3.77773 11.9223 3.85391 11.9223 3.9481C11.9223 4.04092 11.8461 4.11851 11.7519 4.11851H8.0824ZM8.0824 4.94272C7.98816 4.94272 7.91199 4.86655 7.91199 4.77231C7.91199 4.67812 7.98816 4.602 8.0824 4.602H11.7519C11.8461 4.602 11.9223 4.67817 11.9223 4.77231C11.9223 4.8666 11.8461 4.94272 11.7519 4.94272H8.0824ZM8.0824 5.76694C7.98816 5.76694 7.91199 5.69067 7.91199 5.59653C7.91199 5.50239 7.98816 5.42612 8.0824 5.42612H14.2787C14.3729 5.42612 14.4491 5.50239 14.4491 5.59653C14.4491 5.69067 14.3728 5.76694 14.2787 5.76694H8.0824ZM8.0824 6.59111C7.98816 6.59111 7.91199 6.51494 7.91199 6.4208C7.91199 6.32651 7.98816 6.25039 8.0824 6.25039H14.2787C14.3729 6.25039 14.4491 6.32656 14.4491 6.4208C14.4491 6.51499 14.3728 6.59111 14.2787 6.59111H8.0824ZM2.03147 22.2572C1.93723 22.2572 1.86106 22.181 1.86106 22.0868C1.86106 21.994 1.93723 21.9178 2.03147 21.9178H17.0354C17.1295 21.9178 17.2057 21.994 17.2057 22.0868C17.2057 22.181 17.1295 22.2572 17.0354 22.2572H2.03147ZM10.8169 23.1701C10.7227 23.1701 10.6465 23.0939 10.6465 22.9998C10.6465 22.9069 10.7227 22.8293 10.8169 22.8293H21.1995C21.2937 22.8293 21.3699 22.9069 21.3699 22.9998C21.3699 23.0939 21.2936 23.1701 21.1995 23.1701H10.8169ZM22.262 23.1701C22.1678 23.1701 22.0916 23.0939 22.0916 22.9998C22.0916 22.9069 22.1678 22.8293 22.262 22.8293H23.56C23.6542 22.8293 23.7305 22.9069 23.7305 22.9998C23.7305 23.0939 23.6541 23.1701 23.56 23.1701H22.262ZM1.43997 23.1424C1.34583 23.1424 1.26965 23.0662 1.26965 22.972C1.26965 22.8792 1.34583 22.8017 1.43997 22.8017H6.36048C6.45325 22.8017 6.52942 22.8792 6.52942 22.972C6.52942 23.0663 6.45325 23.1424 6.36048 23.1424H1.43997ZM4.79925 4.6227H2.21433V5.29312H3.32117C3.41394 5.29312 3.49011 5.36934 3.49011 5.46352C3.49011 5.55771 3.41394 5.63394 3.32117 5.63394H2.21433V6.73247H3.63982C3.73401 6.73247 3.81013 6.81001 3.81013 6.90278C3.81013 6.99702 3.73396 7.07319 3.63982 7.07319H2.21433V8.17305H3.32117C3.41394 8.17305 3.49011 8.24927 3.49011 8.34346C3.49011 8.43765 3.41394 8.51377 3.32117 8.51377H2.21433V9.6123H3.63982C3.73401 9.6123 3.81013 9.68862 3.81013 9.78271C3.81013 9.8769 3.73396 9.95312 3.63982 9.95312H2.21433V11.053H3.32117C3.41394 11.053 3.49011 11.1292 3.49011 11.2233C3.49011 11.3176 3.41394 11.3937 3.32117 11.3937H2.21433V12.4922H3.63982C3.73401 12.4922 3.81013 12.5698 3.81013 12.6626C3.81013 12.7568 3.73396 12.833 3.63982 12.833H2.21433V13.9329H3.32117C3.41394 13.9329 3.49011 14.0091 3.49011 14.1032C3.49011 14.196 3.41394 14.2736 3.32117 14.2736H2.21433V15.3722H3.63982C3.73401 15.3722 3.81013 15.4497 3.81013 15.5425C3.81013 15.6368 3.73396 15.7129 3.63982 15.7129H2.21433V16.357H4.79925V4.6227Z" fill="white"/>
</svg>
