<svg width="25" height="25" viewBox="0 0 25 25" fill="none" xmlns="http://www.w3.org/2000/svg">
<path fill-rule="evenodd" clip-rule="evenodd" d="M18.9564 13.2064H19.5617V10.091H18.9564V13.2064ZM19.8862 13.2064H21.5917C21.6075 13.2064 21.6247 13.2051 21.6405 13.2025V10.091H19.8862V13.2064ZM7.61313 11.8109V13.2064H11.2469V11.8109H7.61313V11.8109ZM7.61313 10.091V11.4864H11.2469V10.091H7.61313ZM11.5701 16.3482L11.5938 16.3389L11.6017 16.3364L11.6254 16.3258L11.6333 16.3231L11.6571 16.3139L11.665 16.3113L11.6729 16.3073L11.6822 16.3047L11.6875 16.302H11.6901L11.698 16.2981L11.7534 16.2782L11.7613 16.2743L11.8273 16.2532L11.8352 16.2506L11.8431 16.2479C12.0739 16.1714 12.3153 16.1212 12.5646 16.0962L12.5778 16.0949H12.5896L12.5923 16.0936H12.6028L12.6161 16.0923L12.6279 16.091L12.6412 16.0897H12.6543L12.6662 16.0885L12.6913 16.0871H12.6926L12.7045 16.0858H12.7177L12.7229 16.0845H12.7308H12.744L12.7559 16.0832H12.7665H12.7691L12.7823 16.082H12.7942H12.8074H12.8101H12.8206L12.8338 16.0806H12.8471H12.8537H12.8589H12.8721H12.8854H12.8985H12.9104H12.9236H12.9368H12.9421H12.95H12.9619L12.9751 16.082H12.9856H12.9883H13.0015H13.0134L13.0266 16.0832H13.0292H13.0398L13.053 16.0845H13.0649H13.0728L13.0781 16.0858H13.0913L13.1031 16.0871H13.1044L13.1295 16.0885L13.1414 16.0897H13.1545L13.1678 16.091L13.1796 16.0923L13.1929 16.0936H13.2034L13.2047 16.0949H13.2179L13.2312 16.0962C13.5688 16.1292 13.8919 16.211 14.194 16.3363L14.2019 16.3389L14.2243 16.3482C14.2243 13.2156 14.2243 10.0817 14.2243 6.94915C13.9144 7.08108 13.5807 7.16809 13.2312 7.20105L13.2179 7.20237L13.2047 7.20369H13.2034L13.1929 7.20501L13.1796 7.20632H13.1678L13.1545 7.20754L13.1414 7.20886L13.1295 7.21018L13.1044 7.2115H13.1031H13.0913L13.0781 7.21282H13.0728H13.0649L13.053 7.21404H13.0398L13.0292 7.21536H13.0266H13.0134H13.0015L12.9883 7.21668H12.9856H12.9751H12.9619H12.95H12.9421H12.9368H12.9236L12.9104 7.21799H12.8985H12.8854L12.8721 7.21668H12.8589H12.8537H12.8471H12.8338H12.8206H12.8101H12.8074L12.7942 7.21536H12.7823H12.7691H12.7665L12.7559 7.21404H12.744L12.7308 7.21282H12.7229H12.7177L12.7045 7.2115H12.6926H12.6913L12.6662 7.21018L12.6543 7.20886L12.6412 7.20754L12.6279 7.20632H12.6161L12.6028 7.20501L12.5923 7.20369H12.5896L12.5778 7.20237L12.5646 7.20105C12.2177 7.16809 11.8919 7.0824 11.5701 6.94915C11.5701 10.0818 11.5701 13.2156 11.5701 16.3482ZM13.1502 8.23123C13.0855 8.16658 12.9958 8.12698 12.8969 8.12698C12.7993 8.12698 12.7096 8.16658 12.645 8.23123C12.5804 8.29578 12.5395 8.38552 12.5395 8.48445C12.5395 8.58206 12.5803 8.67175 12.645 8.7364C12.7096 8.801 12.7993 8.84192 12.8969 8.84192C12.9958 8.84192 13.0855 8.801 13.1502 8.7364C13.2148 8.67175 13.2557 8.58206 13.2557 8.48445C13.2557 8.38552 13.2148 8.29578 13.1502 8.23123ZM12.897 7.80256C13.0855 7.80256 13.257 7.87903 13.3797 8.00173C13.5024 8.12439 13.5789 8.29578 13.5789 8.48445C13.5789 8.67175 13.5024 8.84324 13.3797 8.96589C13.257 9.08855 13.0856 9.16506 12.897 9.16506C12.7097 9.16506 12.5382 9.08855 12.4155 8.96589C12.2929 8.84319 12.2164 8.67175 12.2164 8.48445C12.2164 8.29583 12.2929 8.12439 12.4155 8.00173C12.5382 7.87903 12.7097 7.80256 12.897 7.80256ZM13.1502 14.71C13.0855 14.6454 12.9958 14.6058 12.8969 14.6058C12.7993 14.6058 12.7096 14.6454 12.645 14.71C12.5804 14.7747 12.5395 14.8643 12.5395 14.9633C12.5395 15.0609 12.5803 15.1506 12.645 15.2152C12.7096 15.2799 12.7993 15.3207 12.8969 15.3207C12.9958 15.3207 13.0855 15.2799 13.1502 15.2152C13.2148 15.1506 13.2557 15.0609 13.2557 14.9633C13.2557 14.8643 13.2148 14.7747 13.1502 14.71ZM12.897 14.2813C13.0855 14.2813 13.257 14.3578 13.3797 14.4804C13.5024 14.6031 13.5789 14.7746 13.5789 14.9633C13.5789 15.1505 13.5024 15.322 13.3797 15.4447C13.257 15.5673 13.0856 15.6451 12.897 15.6451C12.7097 15.6451 12.5382 15.5673 12.4155 15.4447C12.2929 15.3219 12.2164 15.1505 12.2164 14.9633C12.2164 14.7747 12.2929 14.6031 12.4155 14.4804C12.5382 14.3578 12.7097 14.2813 12.897 14.2813ZM6.19917 13.2064H7.28867V10.091H6.19917L3.17212 11.6486C5.75605 12.9782 3.36079 11.7463 6.19917 13.2064ZM7.06445 23.1118C6.9748 23.1118 6.90225 23.0393 6.90225 22.9497C6.90225 22.8599 6.9748 22.7874 7.06445 22.7874H17.2403C17.33 22.7874 17.4025 22.8599 17.4025 22.9497C17.4025 23.0393 17.33 23.1118 17.2403 23.1118H7.06445ZM13.0236 23.7305C12.9339 23.7305 12.8614 23.658 12.8614 23.5682C12.8614 23.4799 12.9339 23.406 13.0236 23.406H20.0642C20.154 23.406 20.2265 23.4799 20.2265 23.5682C20.2265 23.658 20.154 23.7305 20.0642 23.7305H13.0236ZM20.7857 23.7305C20.696 23.7305 20.6234 23.658 20.6234 23.5682C20.6234 23.4799 20.696 23.406 20.7857 23.406H21.6655C21.7552 23.406 21.8277 23.4799 21.8277 23.5682C21.8277 23.658 21.7552 23.7305 21.6655 23.7305H20.7857ZM6.66353 23.712C6.57383 23.712 6.50127 23.6395 6.50127 23.5498C6.50127 23.4601 6.57378 23.3876 6.66353 23.3876H10.0005C10.0902 23.3876 10.1627 23.4601 10.1627 23.5498C10.1627 23.6395 10.0902 23.712 10.0005 23.712H6.66353ZM8.58657 17.5115C8.52588 17.5115 8.46128 17.5511 8.44146 17.6025C8.3874 17.7107 8.46919 17.836 8.58657 17.836H8.91103C8.97173 17.836 9.03628 17.7964 9.0561 17.7449C9.11016 17.6368 9.02842 17.5115 8.91103 17.5115H8.58657V17.5115ZM7.28999 17.5115C7.2293 17.5115 7.16602 17.5511 7.14487 17.6025C7.09082 17.7107 7.17256 17.836 7.28999 17.836H7.61445C7.67647 17.836 7.73975 17.7964 7.76084 17.7449C7.81494 17.6368 7.73184 17.5115 7.61445 17.5115H7.28999V17.5115ZM7.03545 16.794C7.03545 16.7333 6.99585 16.67 6.94443 16.6489C6.83628 16.5948 6.71094 16.6779 6.71094 16.794V17.1184C6.71094 17.1804 6.75054 17.2437 6.802 17.2649C6.91011 17.3189 7.03545 17.2358 7.03545 17.1184V16.794ZM7.03545 15.4987C7.03545 15.4367 6.99585 15.3735 6.94443 15.3523C6.83628 15.2983 6.71094 15.3814 6.71094 15.4987V15.8219C6.71094 15.8839 6.75054 15.9472 6.802 15.9683C6.91011 16.0223 7.03545 15.9393 7.03545 15.8219V15.4987ZM7.03545 14.2022C7.03545 14.1402 6.99585 14.0769 6.94443 14.0558C6.83628 14.0017 6.71094 14.0848 6.71094 14.2022V14.5254C6.71094 14.5874 6.75054 14.6506 6.802 14.6718C6.91011 14.7258 7.03545 14.6427 7.03545 14.5254V14.2022ZM10.2076 17.836C10.2538 17.836 10.3025 17.8122 10.3315 17.7793C10.0058 18.2673 9.81582 18.8555 9.81582 19.486C9.81582 20.0558 9.9688 20.5873 10.2366 21.0437C10.4661 21.4341 10.78 21.7718 11.1533 22.0277V19.2617C11.1533 19.172 11.2258 19.0996 11.3155 19.0996H14.4797C14.5694 19.0996 14.6419 19.172 14.6419 19.2617V22.0277C15.0152 21.7718 15.3292 21.4341 15.5586 21.0437C15.8264 20.5873 15.9794 20.0558 15.9794 19.486C15.9794 18.6352 15.6351 17.865 15.0771 17.3071C14.5667 16.7967 13.894 16.4814 13.1739 16.4168H13.1673L13.1554 16.4155L13.1436 16.4142H13.1344L13.1211 16.4129L13.1093 16.4115H13.0974H13.0961L13.0631 16.4089H13.0565H13.0513L13.0275 16.4076H13.017L13.0157 16.4063H13.0039H12.9919H12.9801H12.9774L12.9682 16.405H12.9563H12.9445H12.9379H12.9339H12.9221H12.9103H12.8983H12.8865H12.8746H12.8627H12.8575H12.8509H12.8391H12.8272L12.818 16.4063H12.8153H12.8035H12.7916H12.7797L12.7784 16.4076H12.7679L12.7441 16.4089H12.7389H12.7336L12.6993 16.4115H12.698H12.6862L12.6743 16.4129L12.6611 16.4142H12.6519L12.64 16.4155L12.6282 16.4168H12.6216C12.2576 16.4498 11.912 16.5447 11.5954 16.6925C11.267 16.8455 10.9715 17.0538 10.7183 17.3071C10.5825 17.443 10.4585 17.5933 10.349 17.753L10.353 17.745C10.4071 17.6369 10.3253 17.5116 10.2079 17.5116H9.8834C9.82275 17.5116 9.75811 17.5511 9.73833 17.6026C9.68423 17.7107 9.76602 17.836 9.8834 17.836H10.2076V17.836ZM18.7598 14.9896C18.7598 15.0503 18.7994 15.1149 18.8508 15.1347C18.9589 15.1887 19.0843 15.1071 19.0843 14.9896V14.6651C19.0843 14.6045 19.0447 14.5399 18.9933 14.52C18.8851 14.4659 18.7598 14.5477 18.7598 14.6651V14.9896V14.9896ZM18.7598 16.2862C18.7598 16.3469 18.7994 16.4114 18.8508 16.4313C18.9589 16.4854 19.0843 16.4036 19.0843 16.2862V15.9617C19.0843 15.9011 19.0447 15.8364 18.9933 15.8166C18.8851 15.7625 18.7598 15.8443 18.7598 15.9617V16.2862V16.2862ZM18.7598 17.5827C18.7598 17.6434 18.7994 17.7067 18.8508 17.7279C18.9589 17.7819 19.0843 17.7002 19.0843 17.5827V17.2583C19.0843 17.1963 19.0447 17.133 18.9933 17.1118C18.8851 17.0578 18.7598 17.1408 18.7598 17.2583V17.5827V17.5827ZM17.7178 17.5115C17.6558 17.5115 17.5925 17.5511 17.5714 17.6025C17.5173 17.7107 17.6004 17.836 17.7178 17.836H18.041C18.103 17.836 18.1663 17.7964 18.1874 17.7449C18.2414 17.6368 18.1583 17.5115 18.041 17.5115H17.7178V17.5115ZM16.4213 17.5115C16.3593 17.5115 16.296 17.5511 16.2749 17.6025C16.2208 17.7107 16.3039 17.836 16.4213 17.836H16.7444C16.8064 17.836 16.8697 17.7964 16.8909 17.7449C16.9449 17.6368 16.8618 17.5115 16.7444 17.5115H16.4213V17.5115ZM19.0843 13.3686C19.0843 13.3079 19.0447 13.2433 18.9934 13.2235C18.8851 13.1695 18.7598 13.2512 18.7598 13.3686V13.6931C18.7598 13.7538 18.7994 13.8184 18.8508 13.8382C18.959 13.8923 19.0843 13.8105 19.0843 13.6931V13.3686V13.3686ZM7.03545 8.30906C7.03545 8.247 6.99585 8.18376 6.94443 8.16267C6.83628 8.10862 6.71094 8.19167 6.71094 8.30906V8.63215C6.71094 8.69416 6.75054 8.75745 6.802 8.77859C6.91011 8.83264 7.03545 8.74958 7.03545 8.63215V8.30906ZM7.03545 7.01248C7.03545 6.95046 6.99585 6.88718 6.94443 6.86604C6.83628 6.81199 6.71094 6.89514 6.71094 7.01248V7.33699C6.71094 7.39763 6.75054 7.46096 6.802 7.48206C6.91011 7.53611 7.03545 7.45442 7.03545 7.33699V7.01248ZM7.03545 5.71594C7.03545 5.6553 6.99585 5.59065 6.94443 5.57087C6.83628 5.51682 6.71094 5.59851 6.71094 5.71594V6.04045C6.71094 6.1011 6.75054 6.1657 6.802 6.18557C6.91011 6.23962 7.03545 6.15784 7.03545 6.04045V5.71594ZM8.07744 5.78718C8.13945 5.78718 8.20269 5.74626 8.22383 5.69485C8.27788 5.58669 8.19482 5.46272 8.07744 5.46272H7.75425C7.69224 5.46272 7.62895 5.50232 7.60786 5.55369C7.55381 5.66184 7.63686 5.78713 7.75425 5.78713H8.07744V5.78718ZM9.37397 5.78718C9.43599 5.78718 9.49927 5.74626 9.52041 5.69485C9.57446 5.58669 9.49136 5.46272 9.37397 5.46272H9.05083C8.98882 5.46272 8.92554 5.50232 8.90444 5.55369C8.85034 5.66184 8.93345 5.78713 9.05083 5.78713H9.37397V5.78718ZM17.2074 5.78718C17.268 5.78718 17.3327 5.74626 17.3524 5.69485C17.4065 5.58669 17.3248 5.46272 17.2074 5.46272H16.8829C16.8222 5.46272 16.7576 5.50232 16.7377 5.55369C16.6837 5.66184 16.7655 5.78713 16.8829 5.78713H17.2074V5.78718ZM18.5039 5.78718C18.5646 5.78718 18.6292 5.74626 18.649 5.69485C18.7031 5.58669 18.6213 5.46272 18.5039 5.46272H18.1794C18.1174 5.46272 18.0541 5.50232 18.0331 5.55369C17.9802 5.66184 18.0621 5.78713 18.1794 5.78713H18.5039V5.78718ZM18.7584 6.50339C18.7584 6.56541 18.7981 6.62864 18.8495 6.64978C18.9577 6.70256 19.0829 6.62078 19.0829 6.50339V6.17893C19.0829 6.11824 19.0434 6.05364 18.9919 6.03376C18.8838 5.97971 18.7584 6.0615 18.7584 6.17893V6.50339ZM18.7584 7.79988C18.7584 7.86052 18.7981 7.92517 18.8495 7.94504C18.9577 7.99905 19.0829 7.91731 19.0829 7.79988V7.47542C19.0829 7.41477 19.0434 7.35012 18.9919 7.33035C18.8838 7.27624 18.7584 7.35798 18.7584 7.47542V7.79988ZM18.7584 9.09651C18.7584 9.15715 18.7981 9.2218 18.8495 9.24158C18.9577 9.29563 19.0829 9.21389 19.0829 9.09651V8.772C19.0829 8.71135 19.0434 8.6467 18.9919 8.62693C18.8838 8.57288 18.7584 8.65461 18.7584 8.772V9.09651ZM15.5863 5.46272C15.5415 5.46272 15.494 5.48513 15.465 5.51677C16.1047 4.55129 16.1588 3.27844 15.5587 2.25491C15.3292 1.86321 15.0152 1.52688 14.642 1.26965V4.03552C14.642 4.12527 14.5695 4.19773 14.4798 4.19773H11.3156C11.2259 4.19773 11.1533 4.12527 11.1533 4.03552V1.2697C10.78 1.52693 10.4661 1.86321 10.2366 2.25496C9.9689 2.70994 9.81587 3.24285 9.81587 3.81135C9.81587 4.66335 10.1614 5.43372 10.7181 5.99163C10.9396 6.21184 11.1942 6.40046 11.4751 6.5469L11.4778 6.54817H11.4804L11.4817 6.54949L11.4844 6.55081L11.487 6.55212L11.4897 6.55344C11.8339 6.73015 12.2165 6.8449 12.6214 6.88049L12.628 6.88176L12.6398 6.88308H12.6517L12.6609 6.8844L12.6741 6.88572H12.686L12.6979 6.88699H12.6991L12.7334 6.88962H12.7387H12.7439L12.7677 6.89094H12.7782H12.7795H12.7914L12.8033 6.89226H12.8151H12.8178H12.827H12.8389H12.8507L12.8573 6.89358H12.8625H12.8744H12.8863H12.8981H12.9101H12.9219H12.9337H12.9377L12.9443 6.89226H12.9562H12.968H12.9772H12.9799H12.9917L13.0037 6.89094H13.0155H13.0168H13.0273L13.0511 6.88962H13.0563H13.0629L13.0959 6.88699H13.0972L13.1091 6.88572H13.1209L13.1342 6.8844L13.1434 6.88308H13.1552L13.1671 6.88176L13.1737 6.88049C13.8952 6.81584 14.5652 6.50193 15.077 5.99153C15.2142 5.85427 15.3368 5.70662 15.4423 5.54963L15.441 5.55359C15.387 5.66174 15.4687 5.78704 15.5861 5.78704H15.9106C15.9726 5.78704 16.0359 5.74612 16.057 5.6947C16.1098 5.58655 16.0279 5.46257 15.9106 5.46257H15.5863V5.46272ZM17.5608 11.4864C17.6505 11.4864 17.7231 11.559 17.7231 11.6486C17.7231 11.7384 17.6505 11.8109 17.5608 11.8109H14.5483V13.2063H18.6319V10.0909H14.5483V11.4864H17.5608V11.4864Z" fill="white"/>
</svg>
