<svg width="25" height="25" viewBox="0 0 25 25" fill="none" xmlns="http://www.w3.org/2000/svg">
<path fill-rule="evenodd" clip-rule="evenodd" d="M12.5 8.72791C13.2778 8.72791 13.9081 9.35823 13.9081 10.1361C13.9081 10.9138 13.2778 11.5443 12.5 11.5443C11.7222 11.5443 11.0918 10.9138 11.0918 10.1361C11.0918 9.35823 11.7222 8.72791 12.5 8.72791ZM8.98777 10.1361V10.3885L9.9593 10.5331C9.9866 10.7173 10.0357 10.8933 10.0998 11.0626L9.33162 11.6739L9.58406 12.1106L10.4983 11.7516C10.6129 11.8935 10.7425 12.0231 10.8858 12.1378L10.5256 13.052L10.9622 13.3044L11.5735 12.5362C11.7427 12.6018 11.9187 12.6495 12.1029 12.6781L12.2489 13.6483H12.7523L12.8983 12.6781C13.0812 12.6495 13.2586 12.6018 13.4263 12.5362L14.039 13.3044L14.4743 13.052L14.1155 12.1378C14.2573 12.0231 14.387 11.8935 14.5015 11.7516L15.4158 12.1106L15.6682 11.6739L14.9 11.0626C14.9655 10.8933 15.0133 10.7174 15.0419 10.5331L16.0134 10.3872V10.1361V9.88367L15.0419 9.73767C15.0133 9.55481 14.9655 9.37742 14.9 9.20964L15.6682 8.59695L15.4158 8.16169L14.5015 8.52053C14.3869 8.37864 14.2573 8.24895 14.1155 8.13445L14.4743 7.22024L14.039 6.9678L13.4263 7.73591C13.2585 7.67043 13.0812 7.62278 12.8983 7.59407L12.7523 6.62258H12.2489L12.1029 7.59407C11.9187 7.62278 11.7427 7.67043 11.5735 7.73591L10.9622 6.9678L10.5256 7.22024L10.8858 8.13445C10.7425 8.249 10.6129 8.37864 10.4983 8.52053L9.58406 8.16169L9.33162 8.59695L10.0998 9.20964C10.0357 9.37747 9.9866 9.55481 9.9593 9.73767L8.98777 9.88367V10.1361V10.1361ZM19.8191 5.77244C19.8982 5.7261 20.0006 5.75334 20.047 5.8325C20.0933 5.91291 20.0661 6.01531 19.9856 6.06165L18.4942 6.92268C18.4136 6.96912 18.3113 6.94182 18.265 6.86267C18.2186 6.7822 18.2459 6.67981 18.3264 6.63342L19.8191 5.77244ZM21.0676 10.0979C21.1604 10.0979 21.2355 10.1729 21.2355 10.2657C21.2355 10.3586 21.1604 10.4336 21.0676 10.4336H19.3442C19.2514 10.4336 19.1763 10.3586 19.1763 10.2657C19.1763 10.1729 19.2514 10.0979 19.3442 10.0979H21.0676ZM8.13772 2.81692C8.09133 2.7365 8.11863 2.63406 8.19778 2.58772C8.27825 2.54128 8.38064 2.56863 8.42703 2.6491L9.28796 4.14192C9.33435 4.22097 9.3071 4.32341 9.22795 4.36975C9.14749 4.41619 9.04509 4.38884 8.99871 4.30828L8.13772 2.81692ZM5.01438 6.06169C4.93391 6.01536 4.90657 5.91296 4.953 5.83254C4.99939 5.75339 5.10173 5.7261 5.18225 5.77249L6.67361 6.63347C6.75408 6.67986 6.78142 6.78225 6.73499 6.86272C6.6886 6.94187 6.5863 6.96921 6.50711 6.92273L5.01438 6.06169ZM3.9324 10.4335C3.83962 10.4335 3.76453 10.3585 3.76453 10.2657C3.76453 10.1729 3.83958 10.0978 3.9324 10.0978H5.65574C5.74851 10.0978 5.82356 10.1729 5.82356 10.2657C5.82356 10.3585 5.74851 10.4335 5.65574 10.4335H3.9324ZM12.212 1.43474C12.2134 1.34329 12.2885 1.26965 12.3813 1.26965C12.4727 1.27097 12.5464 1.34744 12.5464 1.43884L12.5259 2.90701C12.5245 2.99978 12.4495 3.07346 12.3567 3.07209C12.2653 3.07209 12.1903 2.99568 12.1916 2.90295L12.212 1.43474ZM8.01218 23.014C7.91941 23.014 7.84436 22.9391 7.84436 22.8463C7.84436 22.7534 7.91941 22.6784 8.01218 22.6784H14.1483C14.2397 22.6784 14.3161 22.7534 14.3161 22.8463C14.3161 22.9391 14.2397 23.014 14.1483 23.014H8.01218ZM11.231 23.7304C11.1382 23.7304 11.0632 23.6553 11.0632 23.5639C11.0632 23.4712 11.1382 23.3961 11.231 23.3961H16.1009C16.1936 23.3961 16.2687 23.4711 16.2687 23.5639C16.2687 23.6553 16.1937 23.7304 16.1009 23.7304H11.231ZM16.5989 23.7304C16.5061 23.7304 16.431 23.6553 16.431 23.5639C16.431 23.4712 16.506 23.3961 16.5989 23.3961H17.2088C17.3002 23.3961 17.3752 23.4711 17.3752 23.5639C17.3752 23.6553 17.3002 23.7304 17.2088 23.7304H16.5989ZM6.83328 23.7005C6.7405 23.7005 6.66541 23.6254 6.66541 23.5326C6.66541 23.4398 6.74045 23.3647 6.83328 23.3647H9.1406C9.23337 23.3647 9.30847 23.4398 9.30847 23.5326C9.30847 23.6254 9.23342 23.7005 9.1406 23.7005H6.83328ZM8.78855 16.9572C8.85266 16.9572 8.91819 16.9148 8.94001 16.863C8.99597 16.7497 8.91003 16.6215 8.78855 16.6215H8.45291C8.39011 16.6215 8.32463 16.6624 8.30281 16.7156C8.24685 16.8275 8.33284 16.9572 8.45291 16.9572H8.78855ZM16.1963 16.9572C16.2592 16.9572 16.326 16.9148 16.3464 16.863C16.4024 16.7497 16.3178 16.6215 16.1963 16.6215H15.8607C15.7979 16.6215 15.731 16.6624 15.7106 16.7156C15.6547 16.8275 15.7393 16.9572 15.8607 16.9572H16.1963ZM17.5377 16.9572C17.6004 16.9572 17.6673 16.9148 17.6878 16.863C17.7437 16.7497 17.6591 16.6215 17.5377 16.6215H17.202C17.1392 16.6215 17.0724 16.6624 17.0519 16.7156C16.996 16.8275 17.0805 16.9572 17.202 16.9572H17.5377ZM7.11296 16.6215C7.04885 16.6215 6.98333 16.6624 6.9615 16.7156C6.90559 16.8275 6.99153 16.9572 7.11296 16.9572H7.44724C7.51135 16.9572 7.57688 16.9148 7.59876 16.863C7.65466 16.7497 7.56873 16.6215 7.44724 16.6215H7.11296ZM8.78855 16.1016C8.85266 16.1016 8.91819 16.0607 8.94001 16.0074C8.99597 15.8956 8.91003 15.7659 8.78855 15.7659H8.45291C8.39011 15.7659 8.32463 15.8069 8.30281 15.8601C8.24685 15.972 8.33284 16.1016 8.45291 16.1016H8.78855ZM16.1963 16.1016C16.2592 16.1016 16.326 16.0607 16.3464 16.0074C16.4024 15.8956 16.3178 15.7659 16.1963 15.7659H15.8607C15.7979 15.7659 15.731 15.8069 15.7106 15.8601C15.6547 15.972 15.7393 16.1016 15.8607 16.1016H16.1963ZM17.5377 16.1016C17.6004 16.1016 17.6673 16.0607 17.6878 16.0074C17.7437 15.8956 17.6591 15.7659 17.5377 15.7659H17.202C17.1392 15.7659 17.0724 15.8069 17.0519 15.8601C16.996 15.972 17.0805 16.1016 17.202 16.1016H17.5377ZM7.11296 15.7659C7.04885 15.7659 6.98333 15.8069 6.9615 15.8601C6.90559 15.972 6.99153 16.1016 7.11296 16.1016H7.44724C7.51135 16.1016 7.57688 16.0607 7.59876 16.0074C7.65466 15.8956 7.56873 15.7659 7.44724 15.7659H7.11296ZM16.5729 2.6491C16.6194 2.56868 16.7217 2.54128 16.8022 2.58772C16.8813 2.63406 16.9086 2.7365 16.8636 2.81692L16.0012 4.30828C15.9549 4.38879 15.8525 4.41619 15.7734 4.36975C15.6929 4.32341 15.6656 4.22097 15.712 4.14192L16.5729 2.6491ZM10.0494 18.6723H14.952V19.8416H10.0494V18.6723ZM10.5133 21.0096H14.4867V20.1773H10.5133V21.0096ZM13.6871 21.3453V22.179H11.3129V21.3453H13.6871ZM12.5 4.71765C15.5577 4.71765 18.037 7.1969 18.037 10.2547C18.037 12.1513 17.0833 13.8256 15.6287 14.8231L14.6012 18.2275C14.5904 18.263 14.5835 18.2998 14.5781 18.3366H10.4219C10.4178 18.2998 10.4109 18.2629 10.4 18.2275L9.37117 14.8231C7.91799 13.8256 6.96282 12.1513 6.96282 10.2547C6.96287 7.19695 9.44212 4.71765 12.5 4.71765Z" fill="white"/>
</svg>
